<svg width="64" height="64" viewBox="0 0 64 64" fill="none" xmlns="http://www.w3.org/2000/svg">
<path d="M42.2001 62C42.0001 62 41.7001 61.9 41.5001 61.8C41.1001 61.5 40.9001 61.1 41.0001 60.7C41.0001 60.6 43.5001 49.9 28.7001 38.2C28.2001 37.8 28.2001 37.1 28.6001 36.7C29.0001 36.2 29.8001 36.2 30.2001 36.6C42.0001 46 43.6001 54.7 43.5001 58.9C53.0001 52.8 58.3001 46.5 59.4001 40.1C60.3001 34.2 57.1001 30.6 57.0001 30.4C56.6001 29.9 56.7001 29.3 57.1001 28.9C57.6001 28.5 58.3001 28.6 58.7001 29C58.9001 29.2 62.7001 33.5 61.6001 40.3C60.4001 47.7 54.1001 55 42.6001 61.9C42.7001 61.9 42.4001 62 42.2001 62Z" fill="#D0D0D0"/>
<path d="M31.8 62C31.5 62 31.3 61.9 31 61.7C30.6 61.4 30.5 60.9 30.7 60.4C30.9 60 35.1 51.1 23.8 39.2C23.4 38.7 23.4 38.1 23.9 37.7C24.4 37.3 25.1 37.3 25.5 37.8C33.9 46.7 34.4 54.2 33.7 58.2C52.8 44.6 51 33.2 51 33.1C50.9 32.6 51.2 32.2 51.6 31.9C52.1 31.7 52.6 31.8 53 32.1C65.8 45.1 57 53 57 53.1C56.5 53.5 55.8 53.5 55.3 53.1C54.9 52.7 54.9 52 55.3 51.6C55.6 51.3 61.5 45.8 53.2 35.9C52.6 40.8 49.2 50.8 32.3 61.8C32.2 61.9 32 62 31.8 62Z" fill="#D0D0D0"/>
<path d="M51.3 62H51C50.4 61.8 50 61.2 50.2 60.7C50.3 60.3 53.1 50.5 40 39.2C39 42.7 35.8 50.3 26.5 57.7C26 58.1 25.3 58 24.9 57.6C24.5 57.1 24.5 56.5 25 56.1C36.6 46.9 38.2 37.1 38.2 37C38.3 36.6 38.5 36.3 38.9 36.1C39.3 36 39.7 36 40.1 36.3C56.1 49 52.7 60.7 52.5 61.2C52.3 61.7 51.8 62 51.3 62Z" fill="#D0D0D0"/>
<path d="M30.5 41.2C17.8 41.2 19.4 35 21.1 32.7C25.8 26.4 43.6 20 53 20C63.8 20 62.1 26 59.8 29C54.7 35.9 39.9 41.2 30.5 41.2ZM53 23.1C45.3 23.1 31.1 28.3 26.4 32.8C25.5 33.7 23.8 36.1 30.6 36.1C39 36.1 51.8 30.9 55.7 26.3C57 24.6 57.7 23.1 53 23.1Z" fill="#ED4C5C"/>
<path d="M22 42C33.0457 42 42 33.0457 42 22C42 10.9543 33.0457 2 22 2C10.9543 2 2 10.9543 2 22C2 33.0457 10.9543 42 22 42Z" fill="#FF8736"/>
<path d="M7.8 7.99999C8.2 9.69999 8.9 11.2 9.7 12.7C10.5 14.2 11.4 15.7 12.3 17.1C14.2 19.9 16.2 22.7 18.4 25.3C20.6 27.9 22.9 30.4 25.4 32.7C26.7 33.8 28 34.9 29.4 35.8C30.8 36.8 32.3 37.5 34 38C32.3 37.9 30.6 37.2 29 36.4C27.4 35.6 26 34.6 24.6 33.5C21.9 31.3 19.4 28.8 17.2 26.2C15 23.5 13 20.7 11.3 17.6C10.5 16.2 9.7 14.6 9 13C8.4 11.4 7.9 9.69999 7.8 7.99999ZM2 21.5C3.2 24 4.7 26.3 6.5 28.2C8.4 30.1 10.6 31.6 13.1 32.7C15.5 33.8 18.2 34.6 20.7 35.7C22 36.3 23.3 36.9 24.4 37.9C25.5 38.8 26.3 40.2 26.5 41.5C26 40.2 25.1 39.2 24 38.5C22.9 37.8 21.6 37.3 20.3 36.9C17.7 36 15 35.3 12.4 34.1C9.8 32.9 7.4 31.3 5.6 29.1C3.8 26.8 2.6 24.2 2 21.5ZM38.1 33.9C36.5 34.6 34.6 34.9 32.8 34.1C31 33.3 30 31.5 29.3 29.9C27.9 26.5 27.4 23 26.7 19.6C26 16.2 25.2 12.8 23.7 9.79999C22.2 6.79999 19.7 4.09999 16.4 2.89999C18.1 3.29999 19.8 4.09999 21.2 5.19999C22.6 6.29999 23.8 7.79999 24.7 9.29999C26.5 12.4 27.4 16 28.2 19.4L29.2 24.6C29.5 26.3 29.9 28 30.5 29.6C31.1 31.2 31.8 32.7 33.2 33.6C34.5 34.4 36.4 34.3 38.1 33.9Z" fill="#231F20"/>
<path d="M33.6 5.7C34.5 6.3 35.2 7.2 35.7 8.2C36.2 9.2 36.7 10.2 37 11.3C37.7 13.4 38 15.6 38.1 17.9C38.3 22.3 37.2 27 34.7 30.8C33.4 32.7 31.8 34.3 29.9 35.6C28 36.9 25.9 37.8 23.7 38.3C19.4 39.4 14.8 39.3 10.5 38.6C14.9 38.7 19.3 38.5 23.3 37.2C27.4 35.9 31 33.5 33.3 30C35.7 26.5 36.7 22.2 36.8 18C36.8 15.9 36.6 13.7 36.2 11.6C35.8 9.4 35.2 7.2 33.6 5.7Z" fill="#231F20"/>
</svg>
